<svg width="800" height="800" viewBox="0 0 800 800" fill="none" xmlns="http://www.w3.org/2000/svg">
<circle cx="400" cy="330" r="275" fill="url(#paint0_radial_68_365)"/>
<circle cx="400" cy="330" r="250" fill="black"/>
<path d="M260 130H540L486.63 207.586H260V130Z" fill="#F209B6"/>
<path d="M260 207.586H329.613V311.034H260V207.586Z" fill="#F209B6"/>
<path d="M453.37 254.138L260 530L320.982 254.138H453.37Z" fill="#F209B6"/>
<path d="M295 155H575L521.63 232.586H295V155Z" fill="#07A6DF"/>
<path d="M295 232.586H364.613V336.034H295V232.586Z" fill="#07A6DF"/>
<path d="M488.37 279.138L295 555L355.982 279.138H488.37Z" fill="#07A6DF"/>
<path d="M277 142H557L503.63 219.586H277V142Z" fill="white"/>
<path d="M277 219.586H346.613V323.034H277V219.586Z" fill="white"/>
<path d="M470.37 266.138L277 542L337.982 266.138H470.37Z" fill="white"/>
<path d="M186.284 698C183.523 698 181.284 695.761 181.284 693V633.182C181.284 630.42 183.523 628.182 186.284 628.182H223.943C226.705 628.182 228.943 630.42 228.943 633.182V636.886C228.943 639.648 226.705 641.886 223.943 641.886H203.159C200.398 641.886 198.159 644.125 198.159 646.886V651.205C198.159 653.966 200.398 656.205 203.159 656.205H220.909C223.67 656.205 225.909 658.443 225.909 661.205V664.943C225.909 667.705 223.67 669.943 220.909 669.943H203.159C200.398 669.943 198.159 672.182 198.159 674.943V693C198.159 695.761 195.92 698 193.159 698H186.284Z" fill="url(#paint1_radial_68_365)"/>
<path d="M249.111 628.182C251.872 628.182 254.111 630.42 254.111 633.182V693C254.111 695.761 251.872 698 249.111 698H242.44C239.679 698 237.44 695.761 237.44 693V633.182C237.44 630.42 239.679 628.182 242.44 628.182H249.111Z" fill="url(#paint2_radial_68_365)"/>
<path d="M279.483 698.886C276.142 698.886 273.176 698.33 270.585 697.216C268.017 696.08 265.983 694.375 264.483 692.102C263.006 689.807 262.267 686.932 262.267 683.477C262.267 680.568 262.778 678.114 263.801 676.114C264.824 674.114 266.233 672.489 268.028 671.239C269.824 669.989 271.892 669.045 274.233 668.409C276.574 667.75 279.074 667.307 281.733 667.08C284.71 666.807 287.108 666.523 288.926 666.227C290.744 665.909 292.062 665.466 292.881 664.898C293.722 664.307 294.142 663.477 294.142 662.409V662.239C294.142 660.489 293.54 659.136 292.335 658.182C291.131 657.227 289.506 656.75 287.46 656.75C285.256 656.75 283.483 657.227 282.142 658.182C281.965 658.307 281.797 658.439 281.638 658.578C279.808 660.163 277.824 662.074 275.405 661.988L269.769 661.788C266.8 661.683 264.516 658.965 265.781 656.276C266.31 655.151 266.957 654.081 267.722 653.068C269.631 650.545 272.244 648.568 275.562 647.136C278.903 645.682 282.915 644.955 287.597 644.955C290.937 644.955 294.017 645.352 296.835 646.148C299.653 646.92 302.108 648.057 304.199 649.557C306.29 651.034 307.903 652.852 309.04 655.011C310.199 657.17 310.778 659.636 310.778 662.409V693C310.778 695.761 308.54 698 305.778 698H298.744C296.73 698 295.097 696.367 295.097 694.352V690.96C295.097 690.819 294.982 690.705 294.842 690.705V690.705C294.747 690.705 294.66 690.757 294.615 690.841C293.694 692.554 292.525 694.009 291.108 695.205C289.676 696.432 287.983 697.352 286.028 697.966C284.097 698.58 281.915 698.886 279.483 698.886ZM284.631 687.977C286.426 687.977 288.04 687.614 289.472 686.886C290.926 686.159 292.085 685.159 292.949 683.886C293.812 682.591 294.244 681.091 294.244 679.386V676.279C294.244 675.429 293.32 674.847 292.506 675.091V675.091C291.847 675.295 291.119 675.489 290.324 675.67C289.528 675.852 288.71 676.011 287.869 676.148C287.028 676.284 286.222 676.409 285.449 676.523C283.881 676.773 282.54 677.159 281.426 677.682C280.335 678.205 279.494 678.886 278.903 679.727C278.335 680.545 278.051 681.523 278.051 682.659C278.051 684.386 278.665 685.705 279.892 686.614C281.142 687.523 282.722 687.977 284.631 687.977Z" fill="url(#paint3_radial_68_365)"/>
<path d="M365.519 656.485C366.58 659.154 364.27 661.69 361.399 661.766L354.596 661.948C352.762 661.997 351.263 660.542 350.085 659.136V659.136C349.381 658.273 348.46 657.602 347.324 657.125C346.21 656.625 344.915 656.375 343.437 656.375C341.506 656.375 339.858 656.761 338.494 657.534C337.153 658.307 336.494 659.352 336.517 660.67C336.494 661.693 336.903 662.58 337.744 663.33C338.608 664.08 340.142 664.682 342.347 665.136L352.437 667.045C357.665 668.045 361.551 669.705 364.097 672.023C366.665 674.341 367.96 677.409 367.983 681.227C367.96 684.818 366.892 687.943 364.778 690.602C362.687 693.261 359.824 695.33 356.187 696.807C352.551 698.261 348.392 698.989 343.71 698.989C336.233 698.989 330.335 697.455 326.017 694.386C323.297 692.429 321.316 690.053 320.072 687.258C318.875 684.567 321.196 681.914 324.14 681.841L330.877 681.674C333.324 681.613 335.281 683.586 337.076 685.25C337.342 685.497 337.633 685.724 337.949 685.932C339.472 686.932 341.415 687.432 343.778 687.432C345.915 687.432 347.653 687.034 348.994 686.239C350.335 685.443 351.017 684.386 351.04 683.068C351.017 681.886 350.494 680.943 349.472 680.239C348.449 679.511 346.847 678.943 344.665 678.534L335.528 676.795C330.278 675.841 326.369 674.08 323.801 671.511C321.233 668.92 319.96 665.625 319.983 661.625C319.96 658.125 320.892 655.136 322.778 652.659C324.665 650.159 327.347 648.25 330.824 646.932C334.301 645.614 338.403 644.955 343.131 644.955C350.222 644.955 355.812 646.443 359.903 649.42C362.529 651.317 364.401 653.671 365.519 656.485Z" fill="url(#paint4_radial_68_365)"/>
<path d="M392.861 668.136V693C392.861 695.761 390.622 698 387.861 698H381.19C378.429 698 376.19 695.761 376.19 693V633.182C376.19 630.42 378.429 628.182 381.19 628.182H387.315C390.077 628.182 392.315 630.42 392.315 633.182V654.909C392.315 655.097 392.468 655.25 392.656 655.25V655.25C392.8 655.25 392.927 655.16 392.978 655.026C394.167 651.906 396.071 649.458 398.69 647.682C401.395 645.864 404.702 644.955 408.611 644.955C412.293 644.955 415.497 645.773 418.224 647.409C420.952 649.023 423.065 651.307 424.565 654.261C426.088 657.216 426.838 660.67 426.815 664.625V693C426.815 695.761 424.577 698 421.815 698H415.145C412.383 698 410.145 695.761 410.145 693V667.898C410.168 664.989 409.44 662.716 407.963 661.08C406.486 659.443 404.406 658.625 401.724 658.625C399.974 658.625 398.429 659.011 397.088 659.784C395.77 660.534 394.736 661.614 393.986 663.023C393.258 664.432 392.883 666.136 392.861 668.136Z" fill="url(#paint5_radial_68_365)"/>
<path d="M499.635 648.055C500.394 650.909 498.037 653.477 495.084 653.477H487.944C485.431 653.477 483.421 651.549 482.397 649.255C482.32 649.08 482.238 648.908 482.153 648.739C481.449 647.33 480.517 646.125 479.358 645.125C478.199 644.125 476.824 643.364 475.233 642.841C473.665 642.295 471.926 642.023 470.017 642.023C466.631 642.023 463.71 642.852 461.256 644.511C458.824 646.17 456.949 648.568 455.631 651.705C454.335 654.841 453.687 658.636 453.687 663.091C453.687 667.727 454.347 671.614 455.665 674.75C457.006 677.864 458.881 680.216 461.29 681.807C463.722 683.375 466.597 684.159 469.915 684.159C471.778 684.159 473.472 683.92 474.994 683.443C476.54 682.966 477.892 682.273 479.051 681.364C480.233 680.432 481.199 679.307 481.949 677.989C482.05 677.813 482.147 677.635 482.24 677.453C483.353 675.283 485.336 673.465 487.775 673.48L495.129 673.524C498.066 673.542 500.387 676.105 499.472 678.896C499.055 680.17 498.532 681.436 497.903 682.693C496.426 685.693 494.392 688.432 491.801 690.909C489.21 693.364 486.051 695.318 482.324 696.773C478.619 698.227 474.369 698.955 469.574 698.955C463.256 698.955 457.597 697.568 452.597 694.795C447.619 692 443.687 687.932 440.801 682.591C437.915 677.25 436.472 670.75 436.472 663.091C436.472 655.409 437.937 648.898 440.869 643.557C443.801 638.216 447.767 634.159 452.767 631.386C457.767 628.614 463.369 627.227 469.574 627.227C473.801 627.227 477.71 627.818 481.301 629C484.892 630.159 488.051 631.864 490.778 634.114C493.506 636.341 495.722 639.08 497.426 642.33C498.355 644.1 499.091 646.008 499.635 648.055Z" fill="url(#paint6_radial_68_365)"/>
<path d="M534.696 698.989C529.196 698.989 524.469 697.864 520.514 695.614C516.582 693.341 513.548 690.182 511.412 686.136C509.298 682.068 508.241 677.352 508.241 671.989C508.241 666.602 509.298 661.886 511.412 657.841C513.548 653.773 516.582 650.614 520.514 648.364C524.469 646.091 529.196 644.955 534.696 644.955C540.196 644.955 544.912 646.091 548.844 648.364C552.798 650.614 555.832 653.773 557.946 657.841C560.082 661.886 561.151 666.602 561.151 671.989C561.151 677.352 560.082 682.068 557.946 686.136C555.832 690.182 552.798 693.341 548.844 695.614C544.912 697.864 540.196 698.989 534.696 698.989ZM534.798 686.409C536.798 686.409 538.491 685.795 539.878 684.568C541.264 683.341 542.321 681.636 543.048 679.455C543.798 677.273 544.173 674.75 544.173 671.886C544.173 668.977 543.798 666.432 543.048 664.25C542.321 662.068 541.264 660.364 539.878 659.136C538.491 657.909 536.798 657.295 534.798 657.295C532.73 657.295 530.98 657.909 529.548 659.136C528.139 660.364 527.06 662.068 526.31 664.25C525.582 666.432 525.219 668.977 525.219 671.886C525.219 674.75 525.582 677.273 526.31 679.455C527.06 681.636 528.139 683.341 529.548 684.568C530.98 685.795 532.73 686.409 534.798 686.409Z" fill="url(#paint7_radial_68_365)"/>
<path d="M574.69 698C571.929 698 569.69 695.761 569.69 693V650.636C569.69 647.875 571.929 645.636 574.69 645.636H581.361C584.122 645.636 586.361 647.875 586.361 650.636V693C586.361 695.761 584.122 698 581.361 698H574.69ZM578.043 639.534C575.702 639.534 573.69 638.761 572.008 637.216C570.327 635.648 569.486 633.761 569.486 631.557C569.486 629.375 570.327 627.511 572.008 625.966C573.69 624.398 575.702 623.614 578.043 623.614C580.406 623.614 582.418 624.398 584.077 625.966C585.758 627.511 586.599 629.375 586.599 631.557C586.599 633.761 585.758 635.648 584.077 637.216C582.418 638.761 580.406 639.534 578.043 639.534Z" fill="url(#paint8_radial_68_365)"/>
<path d="M613.642 668.136V693C613.642 695.761 611.403 698 608.642 698H601.972C599.21 698 596.972 695.761 596.972 693V650.636C596.972 647.875 599.21 645.636 601.972 645.636H608.017C610.672 645.636 612.824 647.788 612.824 650.443V654.909C612.824 655.098 612.976 655.25 613.164 655.25V655.25C613.308 655.25 613.436 655.16 613.486 655.026C614.656 651.928 616.605 649.491 619.335 647.716C622.131 645.875 625.46 644.955 629.324 644.955C633.006 644.955 636.199 645.784 638.903 647.443C641.631 649.08 643.744 651.375 645.244 654.33C646.767 657.261 647.517 660.693 647.494 664.625V693C647.494 695.761 645.256 698 642.494 698H635.824C633.062 698 630.824 695.761 630.824 693V667.898C630.847 664.989 630.108 662.716 628.608 661.08C627.131 659.443 625.074 658.625 622.437 658.625C620.687 658.625 619.142 659.011 617.801 659.784C616.483 660.534 615.46 661.614 614.733 663.023C614.028 664.432 613.665 666.136 613.642 668.136Z" fill="url(#paint9_radial_68_365)"/>
<defs>
<radialGradient id="paint0_radial_68_365" cx="0" cy="0" r="1" gradientUnits="userSpaceOnUse" gradientTransform="translate(125 340) rotate(0.312521) scale(550.008)">
<stop stop-color="#CC1D31"/>
<stop offset="0.872912" stop-color="#785ACB"/>
<stop offset="1" stop-color="#00ABE0"/>
</radialGradient>
<radialGradient id="paint1_radial_68_365" cx="0" cy="0" r="1" gradientUnits="userSpaceOnUse" gradientTransform="translate(173.5 665.5) rotate(-0.544504) scale(473.521 2928.83)">
<stop stop-color="#B41628"/>
<stop offset="1" stop-color="#1642B4"/>
</radialGradient>
<radialGradient id="paint2_radial_68_365" cx="0" cy="0" r="1" gradientUnits="userSpaceOnUse" gradientTransform="translate(173.5 665.5) rotate(-0.544504) scale(473.521 2928.83)">
<stop stop-color="#B41628"/>
<stop offset="1" stop-color="#1642B4"/>
</radialGradient>
<radialGradient id="paint3_radial_68_365" cx="0" cy="0" r="1" gradientUnits="userSpaceOnUse" gradientTransform="translate(173.5 665.5) rotate(-0.544504) scale(473.521 2928.83)">
<stop stop-color="#B41628"/>
<stop offset="1" stop-color="#1642B4"/>
</radialGradient>
<radialGradient id="paint4_radial_68_365" cx="0" cy="0" r="1" gradientUnits="userSpaceOnUse" gradientTransform="translate(173.5 665.5) rotate(-0.544504) scale(473.521 2928.83)">
<stop stop-color="#B41628"/>
<stop offset="1" stop-color="#1642B4"/>
</radialGradient>
<radialGradient id="paint5_radial_68_365" cx="0" cy="0" r="1" gradientUnits="userSpaceOnUse" gradientTransform="translate(173.5 665.5) rotate(-0.544504) scale(473.521 2928.83)">
<stop stop-color="#B41628"/>
<stop offset="1" stop-color="#1642B4"/>
</radialGradient>
<radialGradient id="paint6_radial_68_365" cx="0" cy="0" r="1" gradientUnits="userSpaceOnUse" gradientTransform="translate(173.5 665.5) rotate(-0.544504) scale(473.521 2928.83)">
<stop stop-color="#B41628"/>
<stop offset="1" stop-color="#1642B4"/>
</radialGradient>
<radialGradient id="paint7_radial_68_365" cx="0" cy="0" r="1" gradientUnits="userSpaceOnUse" gradientTransform="translate(173.5 665.5) rotate(-0.544504) scale(473.521 2928.83)">
<stop stop-color="#B41628"/>
<stop offset="1" stop-color="#1642B4"/>
</radialGradient>
<radialGradient id="paint8_radial_68_365" cx="0" cy="0" r="1" gradientUnits="userSpaceOnUse" gradientTransform="translate(173.5 665.5) rotate(-0.544504) scale(473.521 2928.83)">
<stop stop-color="#B41628"/>
<stop offset="1" stop-color="#1642B4"/>
</radialGradient>
<radialGradient id="paint9_radial_68_365" cx="0" cy="0" r="1" gradientUnits="userSpaceOnUse" gradientTransform="translate(173.5 665.5) rotate(-0.544504) scale(473.521 2928.83)">
<stop stop-color="#B41628"/>
<stop offset="1" stop-color="#1642B4"/>
</radialGradient>
</defs>
</svg>